<svg xmlns:xlink="http://www.w3.org/1999/xlink" xmlns="http://www.w3.org/2000/svg" viewBox="134.7584 95.84639999999999 751.616 718.848" style="max-height: 500px" width="751.616" height="718.848">
	<path d="M378.218 212.207C384.378 206.076 392.714 201.609 400.032 196.986Q412.641 189.037 425.153 180.935L479.005 146.245C489.021 139.88 499.077 132.993 509.639 127.586Q510.333 127.555 511.028 127.551C513.859 127.547 516.111 128.516 518.562 129.849C525.463 133.603 532.078 138.018 538.724 142.202L574.219 164.542L612.064 187.838C621.163 193.367 639.877 203.055 646.523 210.523C648.628 212.887 649.145 217.377 649.421 220.484C649.917 226.072 649.388 231.885 649.329 237.495L649.201 266.545C662.333 267.144 675.702 267.141 688.85 266.94C697.27 266.812 707.229 265.445 715.437 267.083C723.089 268.609 763.992 296.353 773.627 302.406Q801.735 319.713 829.63 337.36C816.45 347.739 801.295 355.46 787.651 365.248L825.771 456.463C811.891 466.279 796.37 473.642 782.343 483.342C797.038 492.041 812.974 499.459 827.062 509.041C819.083 527.761 812.613 547.472 806.173 566.776C803.106 575.97 800.255 585.323 796.714 594.345C783.836 603.648 770.341 611.997 757.061 620.697L700.014 658.497L518.325 779.526L510.699 784.23Q413.81 717.367 315.686 652.33L257.709 614.18C250.702 609.645 234.154 600.323 228.789 594.939C223.853 589.984 203.452 528.491 201.006 519.516C200.3 516.927 199.27 513.344 199.557 510.673C199.715 509.208 202.188 507.518 203.343 506.63C208.734 502.485 214.881 499.049 220.632 495.409Q230.443 489.236 239.734 482.305C232.655 476.575 224.814 471.737 217.123 466.886C212.95 464.253 208.384 461.721 204.632 458.521C203.258 457.349 201.882 455.977 201.23 454.254C200.675 452.784 200.75 451.236 201.171 449.744C203.8 440.447 209.126 430.904 213.08 422.07L238.535 365.464C224.895 356.295 211.706 345.938 197.589 337.588C206.065 329.993 218.733 323.449 228.411 317.108C251.137 302.218 273.676 286.588 297.125 272.866C299.526 271.461 302.229 269.824 304.962 269.233C312.944 267.506 325.26 268.925 333.639 269.023Q355.253 269.232 376.863 268.8C376.687 255.088 375.046 224.191 378.218 212.207ZM512.5 155.236C509.14 154.748 504.511 158.349 501.907 160.263C491.075 166.433 480.667 173.338 470.184 180.077C449.402 193.435 428.873 207.031 407.604 219.619L512.674 286.971C544.059 267.078 575.122 246.559 606.698 226.996C610.61 224.984 614.24 222.65 617.826 220.109C613.208 215.013 596.372 205.886 589.593 201.595L548.32 175.737C540.769 171.019 533.317 166.066 525.6 161.625C521.358 159.184 517.079 156.971 512.5 155.236ZM613.665 251.028Q583.266 270.005 553.262 289.601C543.664 295.825 533.898 301.819 524.486 308.323Q523.536 373.686 524.481 439.046C542.021 428.436 558.491 416.386 575.481 404.95C588.096 396.458 601.533 388.563 613.662 379.423Q619.7 375.341 625.694 371.195Q626.768 307.562 625.954 243.926C621.544 245.69 617.59 248.397 613.665 251.028ZM377.58 298.41L377.384 292.543C355.594 292.537 333.822 292.668 312.041 291.976C302.879 296.921 294.197 303.298 285.561 309.116Q269.614 318.287 254.483 328.75C249.341 331.405 244.454 334.553 239.524 337.579C243.154 340.822 247.672 343.425 251.726 346.114L273.113 360.284L346.628 409.306C381.044 432.246 415.759 454.848 449.876 478.225C470.807 492.567 491.076 508.261 512.56 521.738L698.056 396.58L753.349 359.474C763.706 352.549 774.786 346.075 784.367 338.106C780.204 334.925 775.95 331.878 771.388 329.288C760.598 322.028 718.129 293.382 707.847 291.168C699.899 289.456 690.577 290.732 682.434 290.862C671.368 291.04 660.289 290.995 649.222 291.017C648.985 295.136 648.973 299.265 648.921 303.39C648.13 310.562 648.784 318.22 648.97 325.445Q664.073 325.554 679.177 325.449C688.351 325.343 698.489 324.137 707.444 326.345C713.491 327.837 719.422 331.129 725.121 333.669Q650.666 384.357 575.365 433.782L537.794 458.779C529.21 464.492 520.335 469.979 512.418 476.609L298.346 334.995C302.898 332.029 307.838 328.305 313.191 327.057C321.367 325.152 331.583 326.826 340.02 326.934C352.505 327.095 365.003 327.001 377.489 327.005C377.517 317.538 378.585 307.847 377.58 298.41ZM752.593 388.311C700.398 422.663 649.299 458.79 597.581 493.869C584.211 502.938 570.919 512.162 557.425 521.043C546.472 528.252 534.017 535.034 524.492 544.125C524.437 571.327 523.707 598.502 524.148 625.709L693.928 512.242L751.19 474.379C759.732 468.749 770.767 462.439 778.498 456.331Q786.621 451.259 794.915 446.472C792.631 438.53 788.847 430.778 785.625 423.174C779.448 408.594 773.062 394.07 767.503 379.241C762.329 381.95 757.483 385.129 752.593 388.311ZM782.925 511.46C774.88 506.95 766.861 502.414 758.527 498.449C742.742 509.967 725.898 519.703 709.698 530.596L582.102 616.479L550.882 637.597C541.959 643.541 532.77 649.274 524.493 656.116L524.495 745.868C542.267 735.394 559.114 723.172 576.338 711.817Q634.816 673.48 692.614 634.128Q714.077 619.779 735.891 605.97C743.283 601.225 751.611 596.803 758.225 591.016C764.192 587.397 769.988 583.542 775.79 579.666C778.399 573.068 780.401 566.095 782.667 559.356L796.332 518.709C791.939 516.161 787.411 513.839 782.925 511.46ZM400.504 243.652L400.723 327.008C400.644 341.685 399.087 359.463 400.94 373.848C414.06 384.435 429.263 393.312 443.335 402.639C461.249 414.512 478.858 426.985 496.926 438.606C497.99 439.29 499.268 440.27 500.537 440.264C501.875 396.259 500.162 352.203 500.981 308.2C478.291 292.851 454.936 278.616 431.855 263.881C422.572 257.954 409.91 248.088 400.504 243.652ZM655.743 347.754L649.727 347.924C649.659 350.135 649.228 352.927 650.151 354.966L650.942 355.41C651.674 355.086 652.362 354.803 653.031 354.36C656.124 352.238 659.26 350.161 662.169 347.789L655.743 347.754ZM366.323 349.243L365.664 349.987C366.193 352.134 369.841 354.104 371.689 355.215C373.297 356.182 374.98 357.036 376.649 357.893C377.268 354.792 377.341 352.123 377.097 348.97C373.519 349.026 369.888 348.961 366.323 349.243ZM258.387 379.042C254.168 387.31 251.02 396.333 247.217 404.825C241.059 418.574 234.356 432.112 228.433 445.96C236.318 451.667 244.503 456.921 252.541 462.405Q279.884 481.35 307.66 499.652C365.828 538.32 424.672 576.228 481.8 616.416L500.042 628.399C498.151 599.991 499.501 571.295 499.517 542.841Q413.875 482.253 326.358 424.406L284.049 395.885C275.567 390.129 267.404 383.96 258.387 379.042ZM260.521 497.896C249.138 505.402 237.798 512.979 226.029 519.875C229.113 530.033 232.684 540.04 236.102 550.089C239.287 559.456 242.271 569.035 246.438 578.024C267.963 593.262 290.558 607.242 312.611 621.717Q370.629 659.78 428.188 698.533L461.936 721.441C467.732 725.389 473.781 729.181 479.391 733.378C486.118 737.919 492.972 742.35 499.384 747.33L499.505 657.229C474.737 641.4 450.64 624.367 426.3 607.882Q359.479 562.343 291.83 518.044C285.444 513.876 266.939 499.486 260.521 497.896Z" fill="#292A36"/>
	<path d="M501.907 160.263C504.511 158.349 509.14 154.748 512.5 155.236C521.47 164.896 541.947 174.695 553.466 182.039L583.56 200.975C591.669 206.163 599.378 211.858 607.858 216.464C611.106 218.229 614.11 219.644 617.826 220.109C614.24 222.65 610.61 224.984 606.698 226.996C583.893 212.193 560.672 197.968 537.666 183.477C525.699 175.939 513.255 168.699 501.907 160.263Z" fill="#FAFAFA"/>
	<path d="M512.5 155.236C517.079 156.971 521.358 159.184 525.6 161.625C533.317 166.066 540.769 171.019 548.32 175.737L589.593 201.595C596.372 205.886 613.208 215.013 617.826 220.109C614.11 219.644 611.106 218.229 607.858 216.464C599.378 211.858 591.669 206.163 583.56 200.975L553.466 182.039C541.947 174.695 521.47 164.896 512.5 155.236Z" fill="#FEA619"/>
	<path d="M407.604 219.619C428.873 207.031 449.402 193.435 470.184 180.077C480.667 173.338 491.075 166.433 501.907 160.263C513.255 168.699 525.699 175.939 537.666 183.477C560.672 197.968 583.893 212.193 606.698 226.996C575.122 246.559 544.059 267.078 512.674 286.971L407.604 219.619Z" fill="#FEA619"/>
	<path d="M400.94 373.848C399.087 359.463 400.644 341.685 400.723 327.008L400.504 243.652C409.91 248.088 422.572 257.954 431.855 263.881C454.936 278.616 478.291 292.851 500.981 308.2C500.162 352.203 501.875 396.259 500.537 440.264C499.268 440.27 497.99 439.29 496.926 438.606C478.858 426.985 461.249 414.512 443.335 402.639C429.263 393.312 414.06 384.435 400.94 373.848ZM419.505 333.609Q419.952 350.781 419.999 367.958C430.518 376.315 442.154 383.179 453.265 390.704C460.933 395.897 468.241 401.806 476.154 406.611C477.422 407.38 478.779 408.147 480.277 408.311Q480.366 390.996 479.999 373.684L442.602 348.267C435.334 343.326 427.654 336.895 419.505 333.609Z" fill="#5B6274"/>
	<path d="M613.665 251.028C617.59 248.397 621.544 245.69 625.954 243.926Q626.768 307.562 625.694 371.195Q619.7 375.341 613.662 379.423C613.018 363.729 613.458 347.868 613.478 332.157L613.665 251.028Z" fill="#FAFAFA"/>
	<path d="M524.486 308.323C533.898 301.819 543.664 295.825 553.262 289.601Q583.266 270.005 613.665 251.028L613.478 332.157C613.458 347.868 613.018 363.729 613.662 379.423C601.533 388.563 588.096 396.458 575.481 404.95C558.491 416.386 542.021 428.436 524.481 439.046Q523.536 373.684 524.486 308.323Z" fill="#FEA619"/>
	<path d="M648.921 303.39C648.973 299.265 648.985 295.136 649.222 291.017C660.289 290.995 671.368 291.04 682.434 290.862C690.577 290.732 699.899 289.456 707.847 291.168C718.129 293.382 760.598 322.028 771.388 329.288L770.511 330.12C760.542 329.715 749.513 331.755 739.767 329.678C724.421 326.409 714.425 311.549 698.766 308.863C690.787 307.494 652.072 309.292 649.851 308.086C648.776 306.734 648.974 305.039 648.921 303.39Z" fill="#FFFB08"/>
	<path d="M377.384 292.543L377.58 298.41C377.328 303.309 377.384 308.216 377.39 313.12L326.082 312.547C314.517 312.481 301.882 313.504 290.482 311.491C288.409 311.124 287.319 310.621 285.731 309.253C285.676 309.205 285.618 309.162 285.561 309.116C294.197 303.298 302.879 296.921 312.041 291.976C333.822 292.668 355.594 292.537 377.384 292.543Z" fill="#FFFB08"/>
	<path d="M377.58 298.41C378.585 307.847 377.517 317.538 377.489 327.005C365.003 327.001 352.505 327.095 340.02 326.934C331.583 326.826 321.367 325.152 313.191 327.057C307.838 328.305 302.898 332.029 298.346 334.995L512.418 476.609C520.335 469.979 529.21 464.492 537.794 458.779L575.365 433.782Q650.665 384.357 725.121 333.669C719.422 331.129 713.491 327.837 707.444 326.345C698.489 324.137 688.351 325.343 679.177 325.449Q664.073 325.554 648.97 325.445C648.784 318.22 648.13 310.562 648.921 303.39C648.974 305.039 648.776 306.734 649.851 308.086C652.072 309.292 690.787 307.494 698.766 308.863C714.425 311.549 724.421 326.409 739.767 329.678C749.513 331.755 760.542 329.715 770.511 330.12C764.464 337.236 746.478 346.886 737.751 352.59L702.781 375.934L513.49 503.359C491.397 488.085 468.96 473.256 446.709 458.209L325.154 376.085C309.752 365.73 294.08 355.852 278.559 345.685C270.65 340.504 261.307 335.277 254.483 328.75Q269.614 318.287 285.561 309.116C285.618 309.162 285.676 309.205 285.731 309.253C287.319 310.621 288.409 311.124 290.482 311.491C301.882 313.504 314.517 312.481 326.082 312.547L377.39 313.12C377.384 308.216 377.328 303.309 377.58 298.41Z" fill="#FEA619"/>
	<path d="M239.524 337.579C244.454 334.553 249.341 331.405 254.483 328.75C261.307 335.277 270.65 340.504 278.559 345.685C294.08 355.852 309.752 365.73 325.154 376.085L446.709 458.209C468.96 473.256 491.397 488.085 513.49 503.359L702.781 375.934L737.751 352.59C746.478 346.886 764.464 337.236 770.511 330.12L771.388 329.288C775.95 331.878 780.204 334.925 784.367 338.106C774.786 346.075 763.706 352.549 753.349 359.474L698.056 396.58L512.56 521.738C491.076 508.261 470.807 492.567 449.876 478.225C415.759 454.848 381.044 432.246 346.628 409.306L273.113 360.284L251.726 346.114C247.672 343.425 243.154 340.822 239.524 337.579Z" fill="#E05C00"/>
	<path d="M419.999 367.958Q419.952 350.781 419.505 333.609C427.654 336.895 435.334 343.326 442.602 348.267L479.999 373.684Q480.366 390.996 480.277 408.311C478.779 408.147 477.422 407.38 476.154 406.611C468.241 401.806 460.933 395.897 453.265 390.704C442.154 383.179 430.518 376.315 419.999 367.958Z" fill="#292A36"/>
	<path d="M649.727 347.924L655.743 347.754L662.169 347.789C659.26 350.161 656.124 352.238 653.031 354.36C652.362 354.803 651.674 355.086 650.942 355.41L650.151 354.966C649.228 352.927 649.659 350.135 649.727 347.924Z" fill="#FAFAFA"/>
	<path d="M376.649 357.893C374.98 357.036 373.297 356.182 371.689 355.215C369.841 354.104 366.193 352.134 365.664 349.987L366.323 349.243C369.888 348.961 373.519 349.026 377.097 348.97C377.341 352.123 377.268 354.792 376.649 357.893Z" fill="#FAFAFA"/>
	<path d="M228.433 445.96C234.356 432.112 241.059 418.574 247.217 404.825C251.02 396.333 254.168 387.31 258.387 379.042C267.404 383.96 275.567 390.129 284.049 395.885L326.358 424.406Q413.875 482.252 499.517 542.841C499.501 571.295 498.151 599.991 500.042 628.399L481.8 616.416C424.672 576.228 365.828 538.32 307.66 499.652Q279.883 481.35 252.541 462.405C244.503 456.921 236.318 451.667 228.433 445.96ZM290.915 460.763L286.98 465.865C301.051 476.433 316.465 485.586 331.116 495.36Q379.81 528.006 428.959 559.965Q439.339 566.727 449.511 573.797C457.925 579.653 469.221 588.907 478.614 592.275C479.798 591.306 480.518 590.745 480.987 589.214C480.91 587.237 480.118 586.058 478.713 584.753C473.057 579.497 461.399 572.965 454.427 568.394L402.18 533.989L325.668 483.613L302.34 468.226C298.623 465.774 294.821 462.838 290.915 460.763Z" fill="#FAFAFA"/>
	<path d="M752.593 388.311C757.483 385.129 762.329 381.95 767.503 379.241C773.062 394.07 779.448 408.594 785.625 423.174C788.847 430.778 792.631 438.53 794.915 446.472Q786.621 451.259 778.498 456.331C775.077 449.68 772.958 442.136 770.424 435.094C764.779 419.404 759.451 403.521 752.593 388.311Z" fill="#FAFAFA"/>
	<path d="M524.492 544.125C534.017 535.034 546.472 528.252 557.425 521.043C570.919 512.162 584.211 502.938 597.581 493.869C649.299 458.79 700.398 422.663 752.593 388.311C759.451 403.521 764.779 419.404 770.424 435.094C772.958 442.136 775.077 449.68 778.498 456.331C770.767 462.439 759.732 468.749 751.19 474.379L693.928 512.242L524.148 625.709C523.707 598.502 524.437 571.327 524.492 544.125ZM715.712 465.919L606.748 540.043L579.504 558.735C574.998 561.789 570.273 564.614 565.908 567.86C564.117 569.191 561.097 571.167 560.52 573.376C560.868 574.655 561.114 575.254 562.307 575.954C563.156 576.453 564.268 576.698 565.239 576.759L662.129 511.09C679.599 499.415 698.225 488.638 714.894 475.862C716.826 474.381 719.579 472.194 720.071 469.696C720.237 468.853 719.868 468.417 719.544 467.668C718.293 466.705 717.301 466.19 715.712 465.919Z" fill="#59ABE8"/>
	<path d="M286.98 465.865L290.915 460.763C294.821 462.838 298.623 465.774 302.34 468.226L325.668 483.613L402.18 533.989L454.427 568.394C461.399 572.965 473.057 579.497 478.713 584.753C480.118 586.058 480.91 587.237 480.987 589.214C480.518 590.745 479.798 591.306 478.614 592.275C469.221 588.907 457.925 579.653 449.511 573.797Q439.339 566.727 428.959 559.965Q379.81 528.006 331.116 495.36C316.465 485.586 301.051 476.433 286.98 465.865Z" fill="#292A36"/>
	<path d="M565.239 576.759C564.268 576.698 563.156 576.453 562.307 575.954C561.114 575.254 560.868 574.655 560.52 573.376C561.097 571.167 564.117 569.191 565.908 567.86C570.273 564.614 574.998 561.789 579.504 558.735L606.748 540.043L715.712 465.919C717.301 466.19 718.293 466.705 719.544 467.668C719.868 468.417 720.237 468.853 720.071 469.696C719.579 472.194 716.826 474.381 714.894 475.862C698.225 488.638 679.599 499.415 662.129 511.09L565.239 576.759Z" fill="#292A36"/>
	<defs>
		<linearGradient y2="572.86969" x2="395.43478" y1="661.35797" x1="346.56128" gradientUnits="userSpaceOnUse" id="gradient_0">
			<stop stop-color="#4C6482" offset="0"/>
			<stop stop-color="#697486" offset="1"/>
		</linearGradient>
	</defs>
	<path d="M226.029 519.875C237.798 512.979 249.138 505.402 260.521 497.896C266.939 499.486 285.444 513.876 291.83 518.044Q359.479 562.343 426.3 607.882C450.64 624.367 474.737 641.4 499.505 657.229L499.384 747.33C492.972 742.35 486.118 737.919 479.391 733.378C473.781 729.181 467.732 725.389 461.936 721.441L428.188 698.533Q370.629 659.779 312.611 621.717C290.558 607.242 267.963 593.262 246.438 578.024C242.271 569.035 239.287 559.456 236.102 550.089C232.684 540.04 229.113 530.033 226.029 519.875ZM291.43 576.09C290.322 577.798 289.409 579.412 288.655 581.305C293.65 587.04 301.834 590.974 308.203 595.152Q317.528 601.336 326.777 607.633Q383.215 646.157 440.158 683.93Q449.792 690.332 459.274 696.957C463.951 700.223 468.718 703.994 473.862 706.49C474.902 705.112 475.916 703.824 475.52 701.964C475.452 701.646 475.213 701.019 475.032 700.679C473.676 698.135 469.763 695.784 467.428 694.152C460.214 689.111 452.746 684.409 445.47 679.451Q395.573 645.342 345.127 612.049L309.002 587.314C303.95 583.876 298.556 579.449 293.087 576.789C292.539 576.523 292.002 576.294 291.43 576.09Z" fill="url(#gradient_0)"/>
	<path d="M758.527 498.449C766.861 502.414 774.88 506.95 782.925 511.46C779.042 519.148 776.697 527.47 773.934 535.602C769.322 549.17 765.089 562.255 761.581 576.161C760.346 581.057 758.886 586.009 758.225 591.016C751.611 596.803 743.283 601.225 735.891 605.97Q714.077 619.779 692.614 634.128Q634.815 673.48 576.338 711.817C559.114 723.172 542.267 735.394 524.495 745.868L524.493 656.116C532.77 649.274 541.959 643.541 550.882 637.597L582.102 616.479L709.698 530.596C725.898 519.703 742.742 509.967 758.527 498.449ZM707.277 591.968C688.229 603.285 670.523 616.751 652.026 628.916Q620.948 649.295 590.207 670.178C579.604 677.248 568.624 683.897 558.311 691.381C556.244 692.881 551.625 695.867 550.863 698.345C550.549 699.369 550.714 700.597 551.358 701.474C552.011 702.362 553.11 703.006 554.216 703.026C554.386 703.029 554.555 702.997 554.724 702.982L654.693 636.328Q673.606 623.976 692.284 611.272C697.934 607.454 704.821 603.613 709.702 598.882C710.456 598.151 711.207 597.051 711.274 595.97C711.352 594.735 710.927 593.854 710.047 593.022C709.327 592.341 708.208 592.076 707.277 591.968Z" fill="#FEA619"/>
	<path d="M782.925 511.46C787.411 513.839 791.939 516.161 796.332 518.709L782.667 559.356C780.401 566.095 778.399 573.068 775.79 579.666C769.988 583.542 764.192 587.397 758.225 591.016C758.886 586.009 760.346 581.057 761.581 576.161C765.089 562.255 769.322 549.17 773.934 535.602C776.697 527.47 779.042 519.148 782.925 511.46Z" fill="#FAFAFA"/>
	<path d="M288.655 581.305C289.409 579.412 290.322 577.798 291.43 576.09C292.002 576.294 292.539 576.523 293.087 576.789C298.556 579.449 303.95 583.876 309.002 587.314L345.127 612.049Q395.573 645.341 445.47 679.451C452.746 684.409 460.214 689.111 467.428 694.152C469.763 695.784 473.676 698.135 475.032 700.679C475.213 701.019 475.452 701.646 475.52 701.964C475.916 703.824 474.902 705.112 473.862 706.49C468.718 703.994 463.951 700.223 459.274 696.957Q449.792 690.332 440.158 683.93Q383.215 646.157 326.777 607.633Q317.528 601.336 308.203 595.152C301.834 590.974 293.65 587.04 288.655 581.305Z" fill="#292A36"/>
	<path d="M554.724 702.982C554.555 702.997 554.386 703.029 554.216 703.026C553.11 703.006 552.011 702.362 551.358 701.474C550.714 700.597 550.549 699.369 550.863 698.345C551.625 695.867 556.244 692.881 558.311 691.381C568.624 683.897 579.604 677.248 590.207 670.178Q620.948 649.295 652.026 628.916C670.523 616.751 688.229 603.285 707.277 591.968C708.208 592.076 709.327 592.341 710.047 593.022C710.927 593.854 711.352 594.735 711.274 595.97C711.207 597.051 710.456 598.151 709.702 598.882C704.821 603.613 697.934 607.454 692.284 611.272Q673.606 623.976 654.693 636.328L554.724 702.982Z" fill="#292A36"/>
	<path d="M216.475 817.04C231.69 817.016 247.078 817.463 262.268 816.721C268.106 816.338 277.582 815.847 282.299 819.892C285.235 822.41 286.093 827.535 286.344 831.182C286.88 838.936 288.211 856.123 282.576 862.001C279.29 865.43 273.642 864.99 269.304 864.955C277.64 871.978 285.466 879.794 293.415 887.256C285.654 887.491 277.864 887.414 270.099 887.464C261.931 881.476 243.14 866.369 237.638 858.534Q237.594 857.676 237.559 856.817C237.456 854.224 237.112 851.618 239.269 849.701C242.035 847.242 248.682 848.055 252.272 848.033C256.903 848.046 261.549 847.962 266.162 848.415L266.228 834.396C255.792 834.011 245.262 834.293 234.816 834.376L234.966 887.482L216.527 887.489Q216.311 852.265 216.475 817.04Z" fill="#292A36"/>
	<path d="M363.966 832.054Q363.843 846.314 363.922 860.573C363.928 866.109 364.267 871.913 363.535 877.4C363.247 879.565 362.82 881.886 361.338 883.576C358.397 886.928 354.496 887.397 350.294 887.571C342.057 887.912 333.743 887.774 325.494 887.859C318.748 887.928 310.872 888.733 304.271 887.412C301.812 886.92 299.07 885.837 297.248 884.059C295.738 882.587 295.141 880.935 294.785 878.891C293.519 871.604 294.226 863.402 294.249 856.026L294.406 816.627Q303.67 816.704 312.935 816.682L312.949 870.297L344.683 870.281C344.442 863.987 344.754 857.565 344.784 851.26Q344.85 834.161 344.709 817.062L364.044 816.799L363.966 832.054Z" fill="#292A36"/>
	<path d="M578.994 816.875L586.324 816.75L594.383 816.774C606.175 830.97 619.908 843.708 632.964 856.734C632.631 843.389 632.975 829.956 633.007 816.604L651.954 816.57L651.938 887.683C649.766 887.86 647.555 887.819 645.375 887.856L635.075 887.774C622.362 875.651 610.437 862.609 597.961 850.22Q598.06 869.135 597.76 888.047L578.742 888.058L578.994 816.875Z" fill="#292A36"/>
	<path d="M656.499 834.008L656.515 816.591C678.089 817.302 699.868 816.879 721.458 816.9L721.411 833.865Q710.37 833.714 699.33 833.912C698.941 844.455 699.341 855.191 699.374 865.75C699.399 873.187 699.613 880.692 699.062 888.11C692.916 887.909 686.73 888.04 680.579 888.042Q680.691 860.966 680.453 833.89Q668.475 833.672 656.499 834.008Z" fill="#292A36"/>
	<path d="M727.635 884.217C726.616 873.367 727.234 862.085 727.262 851.192C727.284 842.71 726.635 833.819 727.588 825.399C727.793 823.59 728.124 821.7 729.182 820.174C730.904 817.691 733.516 817.111 736.331 816.679C742.29 816.377 793.586 816.089 797.097 818.054C798.004 818.562 798.555 820.162 798.84 821.114C800.986 828.294 801.763 879.978 798.705 884.639C797.137 887.031 793.597 887.59 791.013 888.196C782.853 889.099 774.178 888.519 765.949 888.57C755.899 888.633 745.522 889.257 735.502 888.573C731.447 888.296 730.313 887.266 727.635 884.217ZM745.905 834.157C745.876 846.856 746.378 859.795 745.747 872.463C757.565 872.37 769.501 871.966 781.309 872.309C782.538 860.436 781.514 846.138 781.445 834.038Q763.674 833.752 745.905 834.157Z" fill="#292A36"/>
	<path d="M808.646 888.467L808.534 849.162C808.492 841.606 808.041 833.792 808.641 826.261C808.81 824.131 808.977 821.478 810.241 819.7C811.85 817.435 815.422 817.053 817.913 816.71C828.177 816.474 867.47 814.997 874.685 818.016C877.446 820.953 877.802 825.609 877.987 829.483C878.311 836.292 879.373 858.886 874.238 863.311C871.25 865.886 864.749 865.433 861.046 865.511C868.355 873.159 876.236 880.37 883.122 888.401Q873.001 888.047 862.875 888.221C853.287 887.33 842.576 869.555 834.736 863.691C833.233 862.565 831.574 861.593 829.662 861.876C827.75 865.139 828.819 883.569 828.863 888.449C822.129 888.328 815.381 888.44 808.646 888.467ZM828.002 834.567L827.927 847.206C832.67 847.201 855.961 847.968 859.219 847.125L859.26 834.711C848.852 834.675 838.405 834.808 828.002 834.567Z" fill="#292A36"/>
	<path d="M141.618 821.417C143.433 819.705 145.05 818.352 147.245 817.123C167.886 816.212 188.8 816.978 209.471 817.059L209.44 833.964C193.545 833.638 177.599 833.959 161.698 834.028C161.621 837.041 161.705 840.074 161.723 843.088L208.96 843.005C208.991 852.53 210.665 875.784 208.092 883.47C207.319 885.776 204.791 886.821 202.785 887.78C182.699 889.151 161.693 888.21 141.511 888.203L141.53 870.539L189.102 870.533C189.237 867.043 189.15 863.532 189.136 860.039Q165.334 859.614 141.531 860.014C141.088 847.363 140.255 834.011 141.618 821.417Z" fill="#292A36"/>
	<path d="M368.084 833.589Q368.052 825.334 368.205 817.08L435.975 817.072L435.953 833.582L414.591 833.874C414.357 844.987 414.496 856.133 414.483 867.25L414.424 888.103C408.1 888.032 401.762 888.167 395.437 888.22L395.241 833.925Q381.664 833.616 368.084 833.589Z" fill="#292A36"/>
	<path d="M441.676 888.065L441.526 817.068L500.914 816.968C500.934 822.753 501.011 828.537 500.7 834.316C487.489 833.329 474.17 833.787 460.934 833.972L460.853 871.224C465.691 871.338 470.546 871.299 475.386 871.334L500.506 871.34C500.639 876.939 500.549 882.552 500.541 888.152C480.967 887.631 461.259 888.007 441.676 888.065Z" fill="#292A36"/>
	<path d="M507.945 888.108C507.707 864.463 508.162 840.79 508.071 817.139C528.908 816.838 550.189 816.344 570.995 817.269C571.027 822.958 570.808 828.666 570.684 834.355Q549.005 834.531 527.327 834.234L527.309 842.575C541.26 842.573 555.257 842.358 569.202 842.751C569.37 848.414 569.241 854.118 569.244 859.785L543.25 859.808Q535.37 859.797 527.491 859.937L527.472 871.594L569.805 871.69Q569.745 880.001 569.784 888.312C549.288 887.44 528.475 888.124 507.945 888.108Z" fill="#292A36"/>
</svg>