<?xml version="1.0" encoding="utf-8" ?>
<svg xmlns="http://www.w3.org/2000/svg" xmlns:xlink="http://www.w3.org/1999/xlink" width="1024" height="1024">
	<path fill="#062843" d="M786.709 214.61C775.239 209.275 765.41 202.401 760.864 190.068C756.252 177.553 758.185 162.13 758.223 148.95Q758.293 131.816 758.034 114.684L655.25 114.612Q642.652 114.58 630.057 114.319C624.293 114.206 618.168 113.64 612.459 114.506C606.768 115.37 601.711 117.686 597.598 121.746Q596.928 122.41 596.308 123.122Q595.689 123.834 595.123 124.59Q594.558 125.345 594.05 126.141Q593.543 126.936 593.095 127.767Q592.648 128.598 592.263 129.46Q591.878 130.321 591.558 131.209Q591.238 132.097 590.984 133.006Q590.731 133.915 590.545 134.84C587.986 147.743 589.587 172.095 589.701 186.182L589.733 265.457C583.507 265.294 577.298 265.114 571.069 265.296L571.112 181.822C571.074 164.654 568.869 145.541 572.673 128.706Q572.996 127.295 573.419 125.911Q573.842 124.527 574.363 123.176Q574.884 121.826 575.5 120.516Q576.117 119.207 576.825 117.944Q577.533 116.682 578.33 115.474Q579.126 114.265 580.007 113.117Q580.888 111.968 581.849 110.886Q582.809 109.803 583.845 108.792Q584.93 107.704 586.091 106.699Q587.253 105.693 588.486 104.776Q589.719 103.859 591.016 103.036Q592.313 102.212 593.667 101.486Q595.021 100.76 596.425 100.136Q597.829 99.512 599.275 98.993Q600.721 98.4739 602.201 98.0628Q603.681 97.6517 605.188 97.3507C613.699 95.5821 622.715 96.0465 631.367 96.078L661.162 96.1556C694.43 96.1455 727.744 95.6561 761.008 96.1016Q765.092 96.1205 769.167 96.3786C777.083 100.898 790.238 115.656 796.979 122.529L840.185 166.821C851.792 178.656 865.649 189.837 875.38 203.245L875.437 322.39L875.466 354.021C875.485 363.802 875.942 373.957 873.919 383.583C872.329 391.152 867.66 398.213 862.267 403.63C846.974 418.993 828.219 417.756 808.103 417.764Q790.962 417.685 773.823 417.949L773.569 399.292C789.473 399.636 805.444 399.517 821.357 399.659C831.397 399.749 841.635 398.127 848.974 390.612C859.564 379.765 856.626 357.637 856.518 343.505L856.472 215.931C833.307 215.553 809.743 217.394 786.709 214.61ZM775.562 128.259C774.845 141.974 772.787 167.065 776.064 179.71C777.014 183.378 778.594 186.833 781.147 189.667C786.503 195.612 794.093 196.924 801.672 197.159C815.372 197.583 829.131 197.164 842.834 196.983L843.181 196.256C838.442 190.096 832.487 184.519 827.087 178.912Q811.67 162.89 795.875 147.242C789.91 141.367 782.358 132.663 775.562 128.259Z"/>
	<path fill="#FEFEFE" d="M842.834 196.983C829.131 197.164 815.372 197.583 801.672 197.159C794.093 196.924 786.503 195.612 781.147 189.667C778.594 186.833 777.014 183.378 776.064 179.71C772.787 167.065 774.845 141.974 775.562 128.259C782.358 132.663 789.91 141.367 795.875 147.242Q811.67 162.89 827.087 178.912C832.487 184.519 838.442 190.096 843.181 196.256L842.834 196.983Z"/>
	<path fill="#FAB046" d="M786.709 214.61C809.743 217.394 833.307 215.553 856.472 215.931L856.518 343.505Q832.308 343.254 808.097 343.442C796.476 343.58 784.994 344.281 773.383 343.315L773.409 336.989L817.522 336.976L817.841 317.144L773.504 317.121C771.655 304.05 766.891 292.815 757.496 283.321Q756.115 281.925 754.643 280.627Q753.17 279.329 751.612 278.134Q750.054 276.939 748.419 275.853Q746.783 274.768 745.077 273.796Q743.371 272.825 741.603 271.972Q739.834 271.119 738.012 270.389Q736.19 269.659 734.322 269.054Q732.454 268.45 730.549 267.975C713.954 263.878 695.101 265.964 678.09 265.991L606.023 266.036L605.944 183.335C605.926 170.006 605.123 156.227 605.978 142.952C606.176 139.867 606.571 136.406 607.819 133.572C610.417 132.092 614.162 131.811 617.129 131.606C631.502 130.613 646.128 131.458 660.533 131.48L742.97 131.513C742.615 147.348 740.765 173.911 743.451 188.862C744.922 197.054 748.785 204.299 755.805 209.072C764.311 214.856 776.753 216.507 786.709 214.61ZM624.517 164.344L624.537 182.983L726.984 182.975L726.995 164.409L624.517 164.344ZM670.584 241.742Q647.796 242.034 625.007 242.04C624.99 248.357 625.02 254.678 624.929 260.993L770.25 260.535L815.492 260.628C815.551 254.432 815.68 248.226 815.635 242.03C767.313 241.986 718.897 241.051 670.584 241.742Z"/>
	<path fill="#062843" d="M624.537 182.983L624.517 164.344L726.995 164.409L726.984 182.975L624.537 182.983Z"/>
	<path fill="#062843" d="M422.246 567.478C409.25 566.178 396.322 566.59 383.288 566.58L331.456 566.433C320.703 566.424 309.543 567.573 298.912 565.694C291.733 564.425 285.377 561.661 279.681 557.077Q278.814 556.391 277.982 555.662Q277.15 554.933 276.355 554.163Q275.561 553.393 274.806 552.585Q274.051 551.777 273.337 550.932Q272.623 550.087 271.953 549.207Q271.282 548.327 270.656 547.415Q270.031 546.503 269.451 545.561Q268.872 544.619 268.34 543.649Q267.809 542.679 267.326 541.684Q266.844 540.688 266.411 539.67Q265.979 538.652 265.598 537.613Q265.218 536.575 264.889 535.519Q264.561 534.462 264.286 533.391Q264.01 532.32 263.789 531.236Q263.568 530.152 263.401 529.059Q263.234 527.965 263.122 526.865C261.635 511.234 263.072 490.216 263.123 473.945L263.332 364.937L263.134 280.619C263.076 267.424 261.715 253.653 263.089 240.545C263.924 232.581 266.604 225.159 271.777 218.97C279.274 210.001 289.26 206.178 300.658 205.22C313.148 205.03 325.742 205.539 338.25 205.547Q405.114 205.73 471.976 205.178C482.229 212.04 491.114 222.048 500.175 230.45Q527.105 255.322 553.738 280.512L672.059 280.518Q684.537 280.555 697.014 280.464C705.53 280.34 714.424 279.515 722.841 281.096Q724.328 281.384 725.791 281.777Q727.254 282.169 728.686 282.665Q730.117 283.16 731.51 283.755Q732.903 284.35 734.251 285.042Q735.598 285.734 736.893 286.519Q738.188 287.305 739.425 288.18Q740.661 289.055 741.833 290.015Q743.004 290.975 744.105 292.016C754.2 301.701 757.743 313.264 757.944 326.986C758.628 373.603 758.373 420.272 758.439 466.893L758.488 504.824C758.499 513.798 759.148 523.467 757.442 532.302C755.908 540.247 751.422 547.928 745.771 553.649Q744.7 554.742 743.555 555.757Q742.41 556.772 741.196 557.704Q739.982 558.636 738.706 559.48Q737.429 560.324 736.096 561.075Q734.763 561.827 733.381 562.483Q731.998 563.138 730.572 563.695Q729.147 564.251 727.686 564.706Q726.225 565.161 724.735 565.511C711.762 568.464 696.802 566.507 683.53 566.542L602.43 566.948C601.845 584.582 602.236 602.334 602.314 619.979L717.779 620.066L750.734 620.009C757.061 619.972 763.551 619.532 769.859 620.06C772.502 620.281 775.033 620.626 776.975 622.601C778.785 624.442 778.948 627.011 779.2 629.462C779.919 636.455 779.313 643.817 779.281 650.858L779.131 693.711L761.304 693.813Q761.031 666.169 761.063 638.524Q703.786 637.725 646.505 638.107L613.115 638.292C606.739 638.343 600.135 638.763 593.796 638.159C591.133 637.905 588.523 637.291 586.614 635.286C584.823 633.405 584.572 630.817 584.304 628.338C583.54 621.299 584.254 613.851 584.283 606.752L584.217 567.056Q552.514 566.643 520.809 566.906L520.845 718.375L521 779.308C521.047 789.348 521.803 799.607 521.06 809.612C520.892 811.866 520.821 815.067 519.191 816.775C517.312 818.745 514.834 819.608 512.206 820.017C502.287 821.558 491.097 820.254 481.006 820.272L410.751 820.465L410.638 802.118L502.935 802.13L502.531 567.568C483.494 565.811 459.85 566.526 440.511 566.968Q440.335 587.066 440.516 607.163C440.54 614.312 441.015 621.815 440.24 628.915C440.001 631.106 439.782 633.767 438.131 635.388C436.109 637.373 433.238 637.746 430.545 637.93C423.954 638.381 417.234 637.962 410.628 637.887Q393.97 637.704 377.31 637.758L253.395 638.116C252.628 656.14 253.128 674.437 252.989 692.496L235.449 692.335C235.222 682.116 233.409 626.963 237.241 622.125C238.75 620.221 242.841 620.123 245.164 619.967C252.344 619.488 259.691 619.774 266.894 619.77L305.499 619.799L422.556 620.01C422.828 602.529 422.561 584.957 422.246 567.478ZM740.536 493.008L740.483 376.695L740.528 344.96C740.542 336.312 740.957 327.536 739.448 318.985C738.581 314.074 736.112 309.867 732.599 306.371C728.399 302.191 723.464 300.083 717.67 299.228C709.712 298.054 701.313 298.751 693.28 298.81C683.219 298.885 673.152 298.737 663.091 298.702C624.76 298.57 586.328 297.707 548.01 298.629Q547.289 298.644 546.569 298.674C530.285 283.169 513.283 268.464 496.776 253.204C486.166 243.396 476.128 232.464 464.432 223.937L351.833 223.88L319.344 223.682C312.637 223.626 305.633 223.141 298.977 224.023C294.098 224.669 290.93 225.571 287.355 229.19C283.92 232.667 282.178 236.826 281.572 241.626C280.377 251.09 281.055 261.273 281.075 270.816L281.194 322.079L281.466 493.977C281.502 497.891 281.204 501.832 281.084 505.746C280.722 517.571 280.518 532.54 289.428 541.656C292.973 545.283 298.393 548.113 303.458 548.769C308.141 549.376 313.217 549.149 317.962 549.24Q334.327 549.566 350.694 549.404L435.38 549.073L628.551 549.037C655.637 549.055 682.768 549.588 709.846 549.333C718.771 549.249 727.2 547.653 733.635 540.857C744.192 529.707 741.155 507.176 740.536 493.008Z"/>
	<path fill="#18AFA0" d="M740.536 493.008L281.466 493.977L281.194 322.079L281.075 270.816C281.055 261.273 280.377 251.09 281.572 241.626C282.178 236.826 283.92 232.667 287.355 229.19C290.93 225.571 294.098 224.669 298.977 224.023C305.633 223.141 312.637 223.626 319.344 223.682L351.833 223.88L464.432 223.937C476.128 232.464 486.166 243.396 496.776 253.204C513.283 268.464 530.285 283.169 546.569 298.674Q547.289 298.644 548.01 298.629C586.328 297.707 624.76 298.57 663.091 298.702C673.152 298.737 683.219 298.885 693.28 298.81C701.313 298.751 709.712 298.054 717.67 299.228C723.464 300.083 728.399 302.191 732.599 306.371C736.112 309.867 738.581 314.074 739.448 318.985C740.957 327.536 740.542 336.312 740.528 344.96L740.483 376.695L740.536 493.008ZM322.672 362.016L322.862 381.313L513.965 381.463C514.179 374.942 514.231 368.511 513.996 361.988L322.672 362.016ZM402.489 409.25L322.99 409.501L322.989 428.12L505.375 428.359Q545.422 428.737 585.465 428.097L585.512 409.018L402.489 409.25ZM322.49 455.015L322.493 474.31Q478.749 475.545 635.01 475.009L635.006 455.379Q550.63 454.666 466.252 455.075L322.49 455.015Z"/>
	<path fill="#062843" d="M625.007 242.04Q647.796 242.034 670.584 241.742C718.897 241.051 767.313 241.986 815.635 242.03C815.68 248.226 815.551 254.432 815.492 260.628L770.25 260.535L624.929 260.993C625.02 254.678 624.99 248.357 625.007 242.04Z"/>
	<path fill="#062843" d="M773.504 317.121L817.841 317.144L817.522 336.976L773.409 336.989C773.738 330.406 773.51 323.717 773.504 317.121Z"/>
	<path fill="#DE8208" d="M773.383 343.315C784.994 344.281 796.476 343.58 808.097 343.442Q832.308 343.254 856.518 343.505C856.626 357.637 859.564 379.765 848.974 390.612C841.635 398.127 831.397 399.749 821.357 399.659C805.444 399.517 789.473 399.636 773.569 399.292L773.383 343.315Z"/>
	<path fill="#FEFEFE" d="M322.862 381.313L322.672 362.016L513.996 361.988C514.231 368.511 514.179 374.942 513.965 381.463L322.862 381.313Z"/>
	<path fill="#FEFEFE" d="M322.99 409.501L402.489 409.25L585.512 409.018L585.465 428.097Q545.422 428.737 505.375 428.359L322.989 428.12L322.99 409.501Z"/>
	<path fill="#FEFEFE" d="M322.493 474.31L322.49 455.015L466.252 455.075Q550.63 454.666 635.006 455.379L635.01 475.009Q478.749 475.544 322.493 474.31Z"/>
	<path fill="#058C80" d="M281.466 493.977L740.536 493.008C741.155 507.176 744.192 529.707 733.635 540.857C727.2 547.653 718.771 549.249 709.846 549.333C682.768 549.588 655.637 549.055 628.551 549.037L435.38 549.073L350.694 549.404Q334.327 549.566 317.962 549.24C313.217 549.149 308.141 549.376 303.458 548.769C298.393 548.113 292.973 545.283 289.428 541.656C280.518 532.54 280.722 517.571 281.084 505.746C281.204 501.832 281.502 497.891 281.466 493.977Z"/>
	<path fill="#062843" d="M800.644 563.738C807.937 556.243 815.696 549.149 823.192 541.853C834.56 530.789 845.75 519.591 857.467 508.887C864.117 514.047 870.063 520.876 876.094 526.797C888.613 539.089 901.419 551.035 912.601 564.598L879.811 598.044C872.263 605.778 864.91 613.807 856.944 621.113C849.311 615.475 842.417 607.289 835.698 600.52C824.242 588.978 810.438 576.439 800.644 563.738ZM856.794 533.838Q841.459 549.08 825.655 563.835C835.775 574.635 846.419 584.898 856.661 595.571C862.189 590.206 867.793 584.885 873.089 579.291C877.773 574.344 882.18 569.06 887.07 564.321C878.453 554.738 867.434 540.612 856.794 533.838Z"/>
	<path fill="#F96E57" d="M825.655 563.835Q841.459 549.08 856.794 533.838C867.434 540.612 878.453 554.738 887.07 564.321C882.18 569.06 877.773 574.344 873.089 579.291C867.793 584.885 862.189 590.206 856.661 595.571C846.419 584.898 835.775 574.635 825.655 563.835Z"/>
	<path fill="#062843" d="M848.529 693.994L848.477 635.159C854.396 635.074 860.279 635.023 866.196 635.282Q865.825 664.582 865.937 693.883C860.144 694.034 854.325 693.962 848.529 693.994Z"/>
	<path fill="#062843" d="M881.125 927.841L728.653 927.958C715.103 927.986 701.541 927.905 687.993 928.104C679.183 928.233 670.14 929.041 661.376 928.066C655.339 927.394 650.108 925.526 645.426 921.511C638.29 915.393 635.485 906.852 634.687 897.735C633.915 888.924 634.531 879.926 634.616 871.087L634.961 820.957L634.659 769.117C634.544 759.058 633.562 748.474 634.933 738.491C635.807 732.12 638.162 726.102 642.377 721.192C649.143 713.309 657.952 710.921 667.94 710.242C682.804 709.676 697.854 710.393 712.747 710.433L803.569 710.528C818.065 710.535 832.581 710.679 847.076 710.466C860.41 710.271 874.049 709.188 887.314 710.999C893.047 711.781 898.316 714.572 902.597 718.404C909.922 724.96 913.172 734.399 913.575 744.029C914.069 755.855 913.584 767.872 913.541 779.712L913.581 842.018Q913.575 856.786 913.772 871.552C913.98 881.481 914.91 891.801 913.454 901.653C912.495 908.141 909.875 914.454 905.271 919.216C898.627 926.089 890.315 927.845 881.125 927.841ZM671.74 728.716C665.951 729.073 659.465 728.954 655.363 733.798C653.289 736.247 652.739 740.543 652.42 743.681C651.667 751.078 652.458 758.799 652.493 766.235L652.539 812.654Q695.071 813.1 737.604 813.008C741.578 802.125 747.728 793.259 758.496 788.231Q759.336 787.83 760.194 787.473Q761.053 787.115 761.928 786.8Q762.804 786.486 763.694 786.216Q764.584 785.946 765.487 785.721Q766.389 785.496 767.302 785.317Q768.215 785.138 769.135 785.005Q770.056 784.871 770.982 784.784Q771.908 784.698 772.837 784.657Q773.767 784.617 774.697 784.624Q775.627 784.63 776.556 784.683Q777.484 784.736 778.409 784.836Q779.334 784.936 780.253 785.082Q781.171 785.228 782.081 785.42Q782.992 785.612 783.891 785.849Q784.79 786.087 785.677 786.369Q786.563 786.652 787.434 786.978Q788.348 787.309 789.245 787.686Q790.141 788.063 791.018 788.484Q791.894 788.905 792.749 789.369Q793.603 789.833 794.433 790.34Q795.263 790.847 796.067 791.394Q796.87 791.942 797.646 792.528Q798.421 793.115 799.166 793.74Q799.911 794.365 800.623 795.027Q801.336 795.688 802.015 796.385Q802.693 797.081 803.336 797.811Q803.979 798.54 804.585 799.301Q805.191 800.062 805.758 800.852Q806.325 801.642 806.851 802.459Q807.378 803.277 807.863 804.119Q808.348 804.962 808.79 805.828Q809.233 806.694 809.631 807.581C810.428 809.357 811.265 811.17 811.921 813.003L849.75 812.918L896.011 812.664Q896.105 787.127 895.781 761.592C895.719 754.633 896.587 747.213 895.324 740.34C894.765 737.297 893.564 734.825 891.39 732.601C889.829 731.004 888.072 729.761 886.227 728.524C839.738 727.977 793.162 728.438 746.665 728.595L693.853 728.83C686.532 728.858 679.033 728.429 671.74 728.716ZM770.309 802.554C763.454 805.603 758.296 809.293 755.551 816.623C753.509 822.076 753.665 827.905 756.225 833.162Q756.44 833.612 756.678 834.051Q756.916 834.49 757.175 834.916Q757.435 835.343 757.716 835.755Q757.997 836.168 758.298 836.565Q758.6 836.963 758.921 837.345Q759.243 837.727 759.583 838.092Q759.923 838.457 760.282 838.805Q760.64 839.152 761.016 839.481Q761.391 839.81 761.783 840.119Q762.174 840.428 762.581 840.717Q762.988 841.006 763.409 841.274Q763.83 841.542 764.264 841.789Q764.699 842.035 765.145 842.259Q765.591 842.483 766.047 842.684Q766.504 842.885 766.971 843.063Q767.437 843.24 767.912 843.394C771.45 844.533 775.452 844.802 779.094 844.052C785.306 841.79 790.506 838.625 793.539 832.471C796.089 827.296 796.074 821.408 794.034 816.069Q793.847 815.565 793.634 815.071Q793.421 814.578 793.182 814.095Q792.945 813.613 792.682 813.144Q792.42 812.675 792.134 812.219Q791.848 811.764 791.539 811.324Q791.23 810.884 790.899 810.46Q790.568 810.036 790.216 809.63Q789.863 809.224 789.491 808.836Q789.118 808.449 788.726 808.081Q788.334 807.712 787.924 807.365Q787.514 807.017 787.086 806.691Q786.659 806.365 786.215 806.061Q785.772 805.757 785.313 805.477Q784.854 805.196 784.382 804.939Q783.91 804.682 783.425 804.45Q782.94 804.217 782.444 804.01C778.521 802.4 774.485 802.186 770.309 802.554ZM653.002 830.542L652.914 872.247C652.828 880.343 652.081 888.665 652.828 896.722C653.115 899.824 653.421 904.224 655.69 906.5C660.407 911.233 673.032 910.117 679.423 909.955C728.569 908.717 777.906 909.466 827.073 909.496Q841.673 909.417 856.271 909.663C866.821 909.898 877.409 910.46 887.933 909.437C892.031 906.736 894.449 904.318 895.576 899.312C896.995 893.009 896.034 885.323 895.819 878.875C895.513 862.972 896.406 846.875 895.21 831.008L812.832 830.982C809.197 842.364 803.62 851.741 792.717 857.448C783.253 862.403 771.737 863.215 761.587 859.977C751.942 856.901 744.509 850.213 739.996 841.2C738.386 837.985 737.138 834.453 736.191 830.988L653.002 830.542Z"/>
	<path fill="#062843" d="M357.125 928.213C305.096 927.441 252.966 928.027 200.926 928.006Q182.813 927.963 164.701 928.192C156.432 928.323 147.806 929.051 139.59 928.078C133.349 927.338 127.268 925.176 122.412 921.091C114.665 914.573 111.548 906.582 110.764 896.709C109.821 884.841 110.172 872.533 110.197 860.618L110.572 798.32L110.529 760.568C110.491 752.992 109.891 744.827 111.013 737.332C111.892 731.462 114.428 725.406 118.373 720.953C125.264 713.176 134.317 711.426 144.198 710.724C160.324 710.413 176.52 710.711 192.653 710.713L289.062 710.72L335.254 710.614C344.506 710.577 354.182 709.913 363.35 711.16C369.549 712.003 374.871 714.316 379.574 718.448C386.496 724.528 389.302 732.875 389.833 741.844C390.433 752 389.932 762.411 389.921 772.597L389.888 833.043L390.057 872.785C390.135 882.045 390.729 891.663 389.411 900.841C388.43 907.673 385.989 914.267 381.227 919.382C374.489 926.62 366.418 927.788 357.125 928.213ZM139.312 728.562C135.581 729.668 132.173 731.057 130.292 734.699C126.919 741.227 128.551 790.412 128.567 802.009L362.421 801.908L372.365 801.655L372.567 763.893C372.6 756.718 373.126 749.138 372.19 742.036C371.767 738.82 371.155 734.73 368.754 732.377C366.459 730.128 363.942 729.173 360.786 728.809C352.655 727.871 343.924 728.564 335.739 728.618L292.197 728.674L139.312 728.562ZM154.85 819.741L128.905 819.994L128.561 868.688C128.49 878 127.679 888.038 129.015 897.239C129.502 900.597 130.243 904.184 132.763 906.631C135.076 908.876 137.721 909.691 140.855 910.019C147.853 910.753 154.889 910.262 161.906 910.154C171.34 910.008 180.781 910.021 190.216 910.012L293.148 909.999C311.246 910.001 329.835 909.1 347.876 910.322C355.004 910.548 363.967 911.284 369.552 905.899C373.559 902.036 373.033 891.971 372.957 886.832Q372.134 853.383 372.516 819.927L233.13 819.759C207.058 819.735 180.912 819.276 154.85 819.741Z"/>
	<path fill="#F5DEC8" d="M128.567 802.009C128.551 790.412 126.919 741.227 130.292 734.699C132.173 731.057 135.581 729.668 139.312 728.562L292.197 728.674L335.739 728.618C343.924 728.564 352.655 727.871 360.786 728.809C363.942 729.173 366.459 730.128 368.754 732.377C371.155 734.73 371.767 738.82 372.19 742.036C373.126 749.138 372.6 756.718 372.567 763.893L372.365 801.655L362.421 801.908L128.567 802.009Z"/>
	<path fill="#FAB046" d="M652.539 812.654L652.493 766.235C652.458 758.799 651.667 751.078 652.42 743.681C652.739 740.543 653.289 736.247 655.363 733.798C659.465 728.954 665.951 729.073 671.74 728.716C679.033 728.429 686.532 728.858 693.853 728.83L746.665 728.595C793.162 728.438 839.738 727.977 886.227 728.524C888.072 729.761 889.829 731.004 891.39 732.601C893.564 734.825 894.765 737.297 895.324 740.34C896.587 747.213 895.719 754.633 895.781 761.592Q896.105 787.127 896.011 812.664L849.75 812.918L811.921 813.003C811.265 811.17 810.428 809.357 809.631 807.581Q809.233 806.694 808.79 805.828Q808.348 804.962 807.863 804.119Q807.378 803.276 806.851 802.459Q806.325 801.642 805.758 800.852Q805.191 800.062 804.585 799.301Q803.979 798.54 803.336 797.811Q802.693 797.081 802.015 796.385Q801.336 795.688 800.623 795.027Q799.911 794.365 799.166 793.74Q798.421 793.115 797.646 792.528Q796.87 791.942 796.067 791.394Q795.263 790.847 794.433 790.34Q793.603 789.833 792.749 789.369Q791.894 788.905 791.018 788.484Q790.141 788.063 789.245 787.686Q788.348 787.309 787.434 786.978Q786.563 786.652 785.677 786.369Q784.79 786.087 783.891 785.849Q782.992 785.612 782.081 785.42Q781.171 785.228 780.253 785.082Q779.334 784.936 778.409 784.836Q777.484 784.736 776.556 784.683Q775.627 784.63 774.697 784.624Q773.767 784.617 772.837 784.657Q771.908 784.698 770.982 784.784Q770.056 784.871 769.135 785.005Q768.215 785.138 767.302 785.317Q766.389 785.496 765.487 785.721Q764.584 785.946 763.694 786.216Q762.804 786.486 761.928 786.8Q761.053 787.115 760.194 787.473Q759.336 787.83 758.496 788.231C747.728 793.259 741.578 802.125 737.604 813.008Q695.071 813.1 652.539 812.654Z"/>
	<path fill="#FAB046" d="M779.094 844.052C775.452 844.802 771.45 844.533 767.912 843.394Q767.437 843.24 766.971 843.063Q766.504 842.885 766.048 842.684Q765.591 842.483 765.145 842.259Q764.699 842.035 764.265 841.789Q763.83 841.542 763.409 841.274Q762.988 841.006 762.581 840.717Q762.175 840.428 761.783 840.119Q761.391 839.81 761.016 839.481Q760.64 839.152 760.282 838.805Q759.923 838.457 759.583 838.092Q759.243 837.727 758.922 837.345Q758.6 836.963 758.299 836.565Q757.997 836.168 757.716 835.755Q757.435 835.343 757.175 834.916Q756.916 834.49 756.678 834.051Q756.44 833.612 756.225 833.162C753.665 827.905 753.509 822.076 755.551 816.623C758.296 809.293 763.454 805.603 770.309 802.554C774.485 802.186 778.521 802.4 782.444 804.01Q782.94 804.217 783.425 804.45Q783.91 804.682 784.382 804.939Q784.854 805.196 785.313 805.477Q785.772 805.757 786.215 806.061Q786.659 806.365 787.086 806.691Q787.514 807.017 787.924 807.365Q788.334 807.712 788.726 808.08Q789.118 808.448 789.491 808.836Q789.863 809.224 790.216 809.63Q790.568 810.036 790.899 810.46Q791.23 810.884 791.539 811.324Q791.848 811.764 792.134 812.219Q792.42 812.675 792.682 813.144Q792.945 813.613 793.182 814.095Q793.421 814.578 793.634 815.071Q793.847 815.565 794.034 816.069C796.074 821.408 796.089 827.296 793.539 832.471C790.506 838.625 785.306 841.79 779.094 844.052Z"/>
	<path fill="#F96E57" d="M128.905 819.994L154.85 819.741C180.912 819.276 207.058 819.735 233.13 819.759L372.516 819.927Q372.134 853.384 372.957 886.832C373.033 891.971 373.559 902.036 369.552 905.899C363.967 911.284 355.004 910.548 347.876 910.322C329.835 909.1 311.246 910.001 293.148 909.999L190.216 910.012C180.781 910.021 171.34 910.008 161.906 910.154C154.889 910.262 147.853 910.753 140.855 910.019C137.721 909.691 135.076 908.876 132.763 906.631C130.243 904.184 129.502 900.597 129.015 897.239C127.679 888.038 128.49 878 128.561 868.688L128.905 819.994ZM322.917 842.578C317.084 844.124 312.219 846.478 309.147 851.98Q308.909 852.415 308.693 852.863Q308.477 853.31 308.285 853.767Q308.092 854.225 307.924 854.692Q307.755 855.159 307.61 855.633Q307.466 856.108 307.346 856.59Q307.226 857.072 307.131 857.559Q307.036 858.046 306.966 858.538Q306.896 859.029 306.851 859.523Q306.806 860.018 306.787 860.514Q306.768 861.01 306.774 861.506Q306.781 862.003 306.812 862.498Q306.844 862.993 306.901 863.487Q306.958 863.98 307.041 864.469Q307.123 864.959 307.231 865.443Q307.338 865.928 307.47 866.406Q307.602 866.885 307.759 867.356C309.403 872.412 313.007 876.701 317.869 878.922C321.256 880.469 324.462 880.702 328.123 880.488C334.12 878.461 339.199 875.092 342.053 869.237Q342.459 868.419 342.782 867.565Q343.104 866.711 343.34 865.829Q343.576 864.947 343.722 864.046Q343.869 863.145 343.924 862.233Q343.98 861.322 343.945 860.41Q343.91 859.497 343.784 858.593Q343.658 857.689 343.442 856.802Q343.226 855.914 342.923 855.053C341.31 850.438 338.041 846.655 333.605 844.56C330.443 843.068 326.413 842.336 322.917 842.578Z"/>
	<path fill="#18AFA0" d="M887.933 909.437C877.409 910.46 866.821 909.898 856.271 909.663Q841.673 909.417 827.073 909.496C777.906 909.466 728.569 908.717 679.423 909.955C673.032 910.117 660.407 911.233 655.69 906.5C653.421 904.224 653.115 899.824 652.828 896.722C652.081 888.665 652.828 880.343 652.914 872.247L653.002 830.542L736.191 830.988C737.138 834.453 738.386 837.985 739.996 841.2C744.509 850.213 751.942 856.901 761.587 859.977C771.737 863.215 783.253 862.403 792.717 857.448C803.62 851.741 809.197 842.364 812.832 830.982L895.21 831.008C896.406 846.875 895.513 862.972 895.819 878.875C896.034 885.323 896.995 893.009 895.576 899.312C894.449 904.318 892.031 906.736 887.933 909.437Z"/>
	<path fill="#FEFEFE" d="M328.123 880.488C324.462 880.702 321.256 880.469 317.869 878.922C313.007 876.701 309.403 872.412 307.759 867.356Q307.602 866.885 307.47 866.406Q307.338 865.928 307.231 865.443Q307.123 864.959 307.041 864.469Q306.958 863.98 306.901 863.487Q306.844 862.994 306.812 862.498Q306.781 862.003 306.774 861.506Q306.768 861.01 306.787 860.514Q306.806 860.018 306.851 859.523Q306.896 859.029 306.966 858.538Q307.036 858.046 307.131 857.559Q307.226 857.072 307.346 856.59Q307.466 856.108 307.61 855.633Q307.755 855.159 307.924 854.692Q308.092 854.225 308.285 853.767Q308.477 853.31 308.693 852.863Q308.909 852.415 309.147 851.98C312.219 846.478 317.084 844.124 322.917 842.578C326.413 842.336 330.443 843.068 333.605 844.56C338.041 846.655 341.31 850.438 342.923 855.053Q343.226 855.914 343.442 856.802Q343.658 857.689 343.784 858.593Q343.91 859.497 343.945 860.41Q343.98 861.322 343.924 862.233Q343.869 863.145 343.722 864.046Q343.576 864.947 343.34 865.829Q343.104 866.711 342.782 867.565Q342.459 868.419 342.053 869.237C339.199 875.092 334.12 878.461 328.123 880.488Z"/>
</svg>
